# xmcd CD database file
#
# Track frame offsets:
#	150
#	23170
#	46600
#	66290
#	93735
#	111567
#	130017
#	153587
#	163840
#	180227
#	199167
#	216002
#	240182
#	260965
#
# Disc length: 3884 seconds
#
# Revision: 1
# Processed by: cddbd v1.5.1PL0 Copyright (c) Steve Scherf et al.
# Submitted via: jetAudio 5
#
DISCID=c20f2a0e
DTITLE=Joe Satriani - Time Machine
DYEAR=1900
DGENRE=
TTITLE0=Time machine
TTITLE1=The Mighty Turtle Head
TTITLE2=All Alone
TTITLE3=Banana Mango
TTITLE4=Thinking Of You
TTITLE5=Crazy
TTITLE6=Speed Of Light
TTITLE7=Baroque
TTITLE8=Dweller On The Threshold
TTITLE9=Dreaming #II
TTITLE10=Always With Me Alwaus With You
TTITLE11=Big Bad Moon
TTITLE12=Surfing With The Alien
TTITLE13=Rubina
EXTD=YEAR 1993
EXTT0=
EXTT1=
EXTT2=
EXTT3=
EXTT4=
EXTT5=
EXTT6=
EXTT7=
EXTT8=
EXTT9=
EXTT10=
EXTT11=
EXTT12=
EXTT13=
PLAYORDER=
